<?xml version="1.0" encoding="UTF-8" standalone="no"?>
<!-- Created with Inkscape (http://www.inkscape.org/) -->

<svg
   width="1000"
   height="250"
   viewBox="0 0 264.58333 66.145833"
   version="1.1"
   id="svg1"
   inkscape:version="1.3.2 (091e20ef0f, 2023-11-25)"
   sodipodi:docname="masw3.svg"
   xmlns:inkscape="http://www.inkscape.org/namespaces/inkscape"
   xmlns:sodipodi="http://sodipodi.sourceforge.net/DTD/sodipodi-0.dtd"
   xmlns="http://www.w3.org/2000/svg"
   xmlns:svg="http://www.w3.org/2000/svg">
  <sodipodi:namedview
     id="namedview1"
     pagecolor="#ffffff"
     bordercolor="#666666"
     borderopacity="1.0"
     inkscape:showpageshadow="2"
     inkscape:pageopacity="0.0"
     inkscape:pagecheckerboard="0"
     inkscape:deskcolor="#d1d1d1"
     inkscape:document-units="px"
     inkscape:zoom="1.0000037"
     inkscape:cx="529.99805"
     inkscape:cy="110.99959"
     inkscape:window-width="1920"
     inkscape:window-height="1044"
     inkscape:window-x="1920"
     inkscape:window-y="0"
     inkscape:window-maximized="1"
     inkscape:current-layer="layer1" />
  <defs
     id="defs1" />
  <g
     inkscape:label="Layer 1"
     inkscape:groupmode="layer"
     id="layer1">
    <rect
       style="fill:#b4a08c;fill-opacity:1;stroke:none;stroke-width:1.7272;stroke-opacity:1"
       id="rect2-2"
       width="264.58334"
       height="5.2916665"
       x="-2.1820323e-11"
       y="-1.4210855e-14" />
    <rect
       style="fill:#1e22b3;fill-opacity:1;stroke:none;stroke-width:4.23074;stroke-opacity:1"
       id="rect2"
       width="264.58334"
       height="31.75"
       x="-2.182033e-11"
       y="34.395832" />
    <rect
       style="fill:#2c9bff;fill-opacity:1;stroke:none;stroke-width:3.45439;stroke-opacity:1"
       id="rect2-7-6"
       width="264.58334"
       height="21.166666"
       x="-2.1820296e-11"
       y="13.229167" />
    <path
       style="fill:#230066;fill-opacity:1;stroke:none;stroke-width:0.284005px;stroke-linecap:butt;stroke-linejoin:miter;stroke-opacity:1"
       d="m 264.58333,27.955902 c 0,0 -2.22011,-0.763275 -3.36324,-0.94291 -4.1315,-0.649229 -9.78756,-0.611666 -12.50228,-0.466891 -2.71472,0.144808 -7.98542,1.631502 -8.94843,2.198278 -0.963,0.566786 -15.63746,3.086881 -16.70288,3.29075 -1.06541,0.203861 -6.37366,3.666121 -8.80126,6.565306 -1.63604,1.953865 -1.93752,5.103728 -3.62921,6.993367 -2.30214,2.571482 -5.53639,3.73265 -8.40224,5.385127 -3.05953,1.764154 -5.69915,4.621866 -9.36968,4.82575 -3.67051,0.203871 -8.67773,0.602665 -12.79303,2.064824 -1.96065,0.696648 -4.22565,2.624705 -5.51926,3.142871 -1.29361,0.518142 -11.17067,1.591056 -18.3978,1.591056 -7.22711,0 -7.32115,-0.508239 -10.96145,-1.00087 -3.54488,-0.479686 -10.57998,-1.901526 -10.57998,-1.901526 l -3.77901,-0.611659 c 0,0 -5.42608,-2.594666 -6.5638,-3.159304 -1.13774,-0.564638 -2.09448,-1.329379 -3.20189,-1.838656 -2.08398,-0.95839 -5.28167,-2.270755 -6.43591,-2.270755 -1.15425,0 -3.52016,-0.92472 -5.28417,-1.366526 -2.21996,-0.556006 -4.40999,-1.345415 -6.66944,-1.616249 -2.47997,-0.297235 -5.956979,0.203894 -7.4799,0 -1.522918,-0.20387 -6.198529,1.477285 -7.201808,1.477285 -1.003279,0 -4.152309,-0.253035 -10.062922,4.985334 -2.774504,2.458965 -2.433849,2.14784 -3.792895,2.941815 -2.589882,1.512987 -5.356716,2.694586 -8.193705,3.403267 C 54.933333,64.39685 43.509281,64.227889 32.251325,64.796729 24.053408,65.210954 15.839789,65.09512 7.6345704,64.985741 5.9559559,64.963411 4.2593866,65.110715 2.600619,64.812776 1.7096063,64.652804 -2.3333344e-8,63.952939 -2.3333344e-8,63.952939 v 2.192894 H 264.43182 Z"
       id="path1"
       sodipodi:nodetypes="cssssssssssssccssssssssssssscccc" />
    <rect
       style="fill:#87f8ff;fill-opacity:1;stroke:none;stroke-width:2.11537;stroke-opacity:1"
       id="rect2-6"
       width="264.58334"
       height="7.9375"
       x="-2.1820323e-11"
       y="5.2916665" />
    <ellipse
       style="fill:#2c9bff;fill-opacity:1;stroke:#787878;stroke-width:3.41571;stroke-opacity:0"
       id="path2-5"
       cx="59.974125"
       cy="34.195187"
       rx="20.430834"
       ry="8.6748362" />
    <ellipse
       style="fill:#87f8ff;fill-opacity:1;stroke:#787878;stroke-width:2.30133;stroke-opacity:0"
       id="path2-0-4"
       cx="60.458149"
       cy="12.700001"
       rx="14.724338"
       ry="5.4639182" />
    <ellipse
       style="fill:#1e22b3;fill-opacity:1;stroke:#787878;stroke-width:3.41571;stroke-opacity:0"
       id="path2-5-9"
       cx="159.91931"
       cy="34.886604"
       rx="20.430834"
       ry="8.6748362" />
    <ellipse
       style="fill:#2c9bff;fill-opacity:1;stroke:#787878;stroke-width:2.30133;stroke-opacity:0"
       id="path2-0-4-2"
       cx="160.40334"
       cy="13.391418"
       rx="14.724338"
       ry="5.4639182" />
  </g>
</svg>
